<svg id="Layer_1" xmlns="http://www.w3.org/2000/svg" viewBox="0 0 270 38"><style>.st0{fill:#fff}</style><path class="st0" d="M76.6 7.8c1.3 1 1.9 2.5 1.9 4.3 0 1.5-.4 2.7-1.2 3.6-.8.9-1.9 1.6-3.3 1.8 1.8.2 3.2.9 4.2 1.9 1 1 1.5 2.4 1.5 4 0 2-.8 3.6-2.2 4.7-1.5 1.1-3.6 1.7-6.2 1.7h-9.7V6.3h9.6c2.3 0 4.1.5 5.4 1.5zm-1.1 7.9c1-.8 1.6-2 1.6-3.5s-.5-2.6-1.6-3.4c-1-.8-2.5-1.2-4.4-1.2H63v9.3h8.2c1.8.1 3.3-.4 4.3-1.2zm.9 11.4c1.2-.9 1.9-2.2 1.9-3.8 0-1.6-.6-2.8-1.9-3.7-1.2-.9-3-1.3-5.3-1.3H63v10.1h8.2c2.2 0 4-.4 5.2-1.3zM92.7 6.3h15.2v1.4H94.1V17h12.2v1.4H94.1v10h14.2v1.4H92.7V6.3zM137 7.7c1.9 1.1 3.3 2.5 4.4 4.3 1.1 1.8 1.6 3.8 1.6 6s-.5 4.1-1.6 6c-1.1 1.8-2.6 3.3-4.4 4.4-1.9 1.1-3.9 1.6-6.1 1.6-2.2 0-4.2-.5-6.1-1.6-1.9-1.1-3.3-2.5-4.4-4.4-1.1-1.8-1.6-3.8-1.6-6s.5-4.1 1.6-6c1.1-1.8 2.6-3.3 4.4-4.3 1.9-1.1 3.9-1.6 6.1-1.6 2.2 0 4.2.5 6.1 1.6zm-11.5 1.2c-1.7.9-3 2.2-3.9 3.8s-1.5 3.4-1.5 5.3.5 3.7 1.5 5.3c1 1.6 2.3 2.9 3.9 3.9 1.7 1 3.4 1.4 5.4 1.4 1.9 0 3.7-.5 5.4-1.4 1.7-1 3-2.2 3.9-3.9 1-1.6 1.5-3.4 1.5-5.3s-.5-3.7-1.5-5.3c-1-1.6-2.3-2.9-3.9-3.8-1.7-.9-3.4-1.4-5.4-1.4-2 0-3.8.5-5.4 1.4zM171.9 18.3h1.3v8.6c-1.1 1-2.4 1.7-3.8 2.3-1.5.5-3 .8-4.5.8-2.2 0-4.2-.5-6.1-1.6-1.9-1.1-3.3-2.5-4.4-4.4-1.1-1.8-1.6-3.8-1.6-6s.5-4.1 1.7-6c1.1-1.8 2.6-3.3 4.5-4.3 1.9-1.1 3.9-1.6 6.1-1.6 1.6 0 3 .3 4.5.8s2.7 1.3 3.8 2.3l-.8 1c-1-.9-2.1-1.6-3.4-2.1-1.3-.5-2.6-.8-4-.8-1.9 0-3.8.5-5.4 1.4-1.7 1-3 2.2-3.9 3.8-1 1.6-1.5 3.4-1.5 5.3s.5 3.7 1.5 5.3c1 1.6 2.3 2.9 3.9 3.9 1.7 1 3.5 1.4 5.4 1.4 1.3 0 2.5-.2 3.7-.6 1.2-.4 2.3-1 3.3-1.8l-.3-7.7zM203.2 29.8l-5.5-8c-.6.1-1.2.1-2 .1h-6.9v7.8h-1.4V6.3h8.3c2.9 0 5.2.7 6.7 2 1.6 1.3 2.4 3.2 2.4 5.7 0 2-.5 3.6-1.5 4.9-1 1.3-2.4 2.2-4.3 2.6l5.9 8.2-1.7.1zm-7.5-9.2c2.5 0 4.4-.6 5.7-1.7 1.3-1.1 2-2.7 2-4.8 0-2.1-.7-3.7-2-4.7-1.3-1.1-3.2-1.7-5.7-1.7h-6.9v12.9h6.9zM236 29.8l-3.1-6.7h-13.8l-3 6.7h-1.6l10.7-23.5h1.5l10.8 23.5H236zm-16.2-8.1h12.5L226 7.9l-6.2 13.8zM264 7.9c1.8 1 3.3 2.5 4.4 4.3 1.1 1.8 1.6 3.8 1.6 5.9 0 2.1-.5 4.1-1.6 5.9-1.1 1.8-2.5 3.2-4.4 4.3-1.9 1-3.9 1.6-6.1 1.6h-9.3V6.3h9.4c2.1 0 4.2.5 6 1.6zm-.7 19.1c1.6-.9 2.9-2.2 3.9-3.8 1-1.6 1.4-3.3 1.4-5.2 0-1.9-.5-3.7-1.4-5.2-1-1.6-2.3-2.8-3.9-3.8-1.6-.9-3.4-1.4-5.4-1.4H250v20.8h8c1.9 0 3.7-.5 5.3-1.4z"/><g><path class="st0" d="M36 33.5c-2.5 0-3.8.8-5 1.4-1.1.6-2 1.1-4 1.1s-2.9-.5-4-1.1c-1.2-.6-2.5-1.4-5-1.4s-3.8.8-5 1.4c-1 .6-2 1.1-4 1.1s-2.9-.5-4-1.1c-1.2-.6-2.5-1.4-5-1.4v1.9c2 0 2.9.5 4 1.1 1.2.7 2.5 1.5 5 1.5s3.8-.8 5-1.4c1.1-.6 2-1.1 4-1.1s2.9.5 4 1.1c1.2.6 2.5 1.4 5 1.4s3.8-.8 5-1.4c1.1-.6 2-1.1 4-1.1s2.9.5 4 1.1c1.2.6 2.5 1.4 5 1.4v-2c-2 0-2.9-.5-4-1.1-1.2-.7-2.5-1.4-5-1.4zM41 30.4c-.1 0-.1-.1-.2-.1L39 22.6c.6-.6 1-1.4 1-2.3v-7.1l-3-3.7-3.1 3.7v3.7h-3.7v-6.1l3.4-2.7V0h-5.9v2.9h-2.2V0h-6v2.9h-2.2V0h-5.9v8.1l3.3 2.7v6.1h-3.6v-3.7l-3-3.7L5 13.2v7.1c0 .9.4 1.7 1 2.3L4.3 30c-1-.5-2.3-1-4.3-1v1.9c2 0 2.9.5 4 1.1 1.2.6 2.5 1.4 5 1.4s3.8-.8 5-1.4c1.1-.6 2-1.1 4-1.1s2.9.5 4 1.1c1.2.6 2.5 1.4 5 1.4s3.8-.8 5-1.4c1.1-.6 2-1.1 4-1.1 1.5 0 2.3.3 3.1.7v.1h.1c.3.1.5.3.8.4 1.2.6 2.5 1.4 5 1.4v-1.9c-2-.1-2.9-.6-4-1.2zm-5.2-16.5l1.2-1.4 1.2 1.4v6.4c0 .6-.5 1.2-1.2 1.2-.6 0-1.2-.5-1.2-1.2v-6.4zm-22.4-12h2.1v2.9h6V1.9h2.1v2.9h6V1.9h2.1v5.3l-2.2 1.7h-14l-2.2-1.7V1.9zm3.3 8.9h11.6v6.1H16.7v-6.1zm-9.8 3.1L8 12.5l1.2 1.4v6.4c0 .6-.5 1.2-1.2 1.2-.6 0-1.2-.5-1.2-1.2v-6.4zm13.9 15.4v-4.5c0-.9.8-1.7 1.7-1.7s1.7.8 1.7 1.7V31l-1.2-.6c-.6-.4-1.3-.8-2.2-1.1zM36 29c-2.5 0-3.8.8-5 1.4-1.1.6-2 1.1-4 1.1-.3 0-.6 0-.9-.1v-6.6c0-2-1.6-3.6-3.6-3.6s-3.6 1.6-3.6 3.6V29H18c-2.5 0-3.8.8-5 1.4-1.1.6-2 1.1-4 1.1-1.3 0-2.2-.3-3-.6l1.8-7.6h.3c1.7 0 3.1-1.4 3.1-3.1v-1.5h22.7v1.5c0 1.7 1.4 3.1 3.1 3.1h.3l1.4 6c-.8-.2-1.6-.3-2.7-.3z"/></g></svg>