<svg xmlns="http://www.w3.org/2000/svg" width="300" viewBox="0 0 1041.6 146.5" role="img" aria-label=">frontpage">
  <title id="logoTitle">Belgrade theme logo</title>
  <path fill="currentColor" d="M295.4 30.1c5 3.9 7.5 9.5 7.5 16.5 0 5.6-1.5 10.3-4.6 13.9-3.1 3.6-7.4 6-12.9 7 7 .9 12.4 3.3 16.3 7.3 3.8 4 5.8 9.2 5.8 15.6 0 7.7-2.9 13.7-8.6 18s-13.7 6.4-24 6.4h-37.4V24.2h37.1c8.9 0 15.9 2 20.8 5.9zm-4 30.6c4-3.1 6-7.6 6-13.4 0-5.6-2-10-6-13.1-4-3.1-9.7-4.7-16.9-4.7H243v35.8h31.5c7.2.1 12.9-1.5 16.9-4.6zm3.4 43.8c4.8-3.4 7.2-8.3 7.2-14.6 0-6.1-2.4-10.9-7.2-14.2-4.8-3.3-11.6-5-20.3-5H243v38.8h31.5c8.7.1 15.5-1.6 20.3-5zM357.5 24.2H416v5.3h-53v36.2h47.2v5.4H363v38.4h54.8v5.3h-60.2V24.2zM528.3 29.8c7.2 4.1 12.9 9.7 17.1 16.7 4.2 7 6.3 14.7 6.3 23s-2.1 16-6.3 23c-4.2 7.1-9.9 12.7-17.1 16.8-7.2 4.2-15.1 6.2-23.5 6.2-8.5 0-16.3-2.1-23.5-6.2-7.2-4.2-12.9-9.8-17.1-16.8-4.2-7-6.3-14.7-6.3-23s2.1-16 6.3-23c4.2-7 9.9-12.6 17.1-16.7 7.2-4.1 15.1-6.2 23.5-6.2 8.5 0 16.3 2 23.5 6.2zm-44.2 4.6c-6.4 3.6-11.4 8.5-15.1 14.7-3.7 6.2-5.6 13-5.6 20.3 0 7.4 1.9 14.1 5.6 20.4 3.7 6.2 8.8 11.2 15.1 14.9 6.4 3.7 13.3 5.5 20.7 5.5 7.4 0 14.3-1.8 20.7-5.5 6.4-3.7 11.4-8.6 15.1-14.9 3.7-6.2 5.6-13 5.6-20.4 0-7.4-1.9-14.1-5.6-20.3-3.7-6.2-8.8-11.1-15.1-14.7-6.4-3.6-13.3-5.4-20.7-5.4-7.5-.1-14.4 1.7-20.7 5.4zM662.9 70.4h4.9v33.1c-4.2 3.7-9.2 6.6-14.8 8.8-5.6 2.1-11.4 3.2-17.4 3.2-8.5 0-16.3-2.1-23.5-6.2-7.2-4.2-12.9-9.8-17.1-16.8-4.2-7-6.3-14.7-6.3-23s2.1-16 6.4-23c4.2-7 10-12.6 17.2-16.7 7.2-4.1 15.1-6.2 23.5-6.2 6 0 11.7 1.1 17.2 3.2s10.4 5.1 14.7 8.9l-3.2 4c-3.8-3.5-8.2-6.1-13.1-8-4.9-1.9-10.1-2.9-15.6-2.9-7.5 0-14.5 1.8-20.8 5.5-6.4 3.7-11.4 8.6-15.2 14.8-3.8 6.2-5.6 13-5.6 20.3 0 7.4 1.9 14.3 5.6 20.5 3.7 6.2 8.8 11.2 15.2 14.9 6.4 3.7 13.4 5.5 20.9 5.5 4.9 0 9.7-.8 14.4-2.5 4.7-1.6 8.9-4 12.6-7V70.4zM783.9 114.9l-21.4-30.8c-2.2.3-4.7.5-7.7.5h-26.6v30.2h-5.5V24.2h32c11.2 0 19.9 2.6 26 7.8s9.1 12.5 9.1 22.1c0 7.7-1.9 14-5.7 19-3.8 5-9.3 8.4-16.6 10.2l22.7 31.7h-6.3zm-29-35.5c9.5 0 16.8-2.2 22-6.5 5.1-4.3 7.7-10.6 7.7-18.7 0-8-2.6-14.1-7.7-18.3-5.1-4.2-12.5-6.4-22-6.4h-26.7v49.8h26.7zM910.4 114.9l-11.8-25.8h-53.1l-11.7 25.8h-6L869 24.2h5.8l41.5 90.7h-5.9zm-62.6-31.2h48.3l-24.3-53.2-24 53.2zM1018.4 30.3c7.1 4 12.8 9.5 16.9 16.5 4.2 7 6.2 14.6 6.2 22.9 0 8.2-2.1 15.8-6.2 22.8-4.2 7-9.8 12.5-17 16.5-7.2 4-15 6-23.5 6h-35.9V24.2H995c8.4 0 16.3 2 23.4 6.1zm-2.9 73.9c6.3-3.6 11.2-8.4 14.9-14.5 3.7-6.1 5.5-12.8 5.5-20 0-7.4-1.8-14.1-5.5-20.2s-8.7-10.9-14.9-14.5c-6.3-3.6-13.2-5.4-20.7-5.4h-30.5v80.1H995c7.4-.1 14.3-1.9 20.5-5.5z"/>
  <path fill="currentColor" d="M138.9 129.2c-9.7 0-14.7 2.9-19.2 5.4-4.2 2.4-7.8 4.4-15.5 4.4s-11.3-2.1-15.5-4.4c-4.5-2.5-9.5-5.4-19.2-5.4s-14.7 2.9-19.2 5.4c-4.2 2.4-7.8 4.4-15.5 4.4s-11.3-2.1-15.5-4.4c-4.5-2.5-9.5-5.4-19.2-5.4v7.4c7.7 0 11.3 2.1 15.5 4.4 4.5 2.5 9.5 5.4 19.2 5.4s14.7-2.9 19.2-5.4c4.2-2.4 7.8-4.4 15.5-4.4s11.3 2.1 15.5 4.4c4.5 2.5 9.5 5.4 19.2 5.4s14.7-2.9 19.2-5.4c4.2-2.4 7.8-4.4 15.5-4.4s11.3 2.1 15.5 4.4c4.5 2.5 9.5 5.4 19.2 5.4V139c-7.7 0-11.3-2.1-15.5-4.4-4.4-2.5-9.5-5.4-19.2-5.4zM158.1 117.1c-.2-.1-.4-.2-.6-.4l-7-29.7c2.5-2.2 4-5.4 4-8.9V50.8l-11.9-14.3-11.9 14.3v14.3h-14.1V41.6h.1l13.1-10.4V0H107v11.1h-8.5V0h-23v11.1H67V0H44.1v31.2L57 41.5v23.7H43V50.8L31.1 36.5 19.2 50.8v27.3c0 3.5 1.6 6.7 4 8.9l-6.7 28.5c-3.9-2-8.7-3.9-16.5-3.9v7.4c7.7 0 11.3 2.1 15.5 4.4 4.5 2.5 9.5 5.4 19.2 5.4s14.7-2.9 19.2-5.4c4.2-2.4 7.8-4.4 15.5-4.4s11.3 2.1 15.5 4.4c4.5 2.5 9.5 5.4 19.2 5.4s14.7-2.9 19.2-5.4c4.2-2.4 7.8-4.4 15.5-4.4 5.6 0 9 1.1 12.1 2.6l.1.3.4-.1c1 .5 2 1.1 3 1.6 4.5 2.5 9.5 5.4 19.2 5.4v-7.4c-7.6.1-11.3-1.9-15.5-4.3zm-20-63.6l4.5-5.4 4.5 5.4v24.7c0 2.5-2 4.5-4.5 4.5s-4.5-2-4.5-4.5V53.5zM51.5 7.4h8.1v11.1h23.3V7.4H91v11.1h23.3V7.4h8.1v20.3l-8.3 6.6H59.8l-8.3-6.6V7.4zm13 34.2h44.7v23.5H64.5V41.6zm-38 11.9l4.5-5.4 4.5 5.4v24.7c0 2.5-2 4.5-4.5 4.5s-4.5-2-4.5-4.5V53.5zm53.8 59.7V95.8c0-3.6 2.9-6.5 6.5-6.5s6.5 2.9 6.5 6.5v23.8c-1.7-.7-3.1-1.6-4.7-2.4-2.3-1.5-4.9-2.9-8.3-4zm58.6-1.5c-9.7 0-14.7 2.9-19.2 5.4-4.2 2.4-7.8 4.4-15.5 4.4-1.3 0-2.4-.1-3.4-.2V95.8c0-7.7-6.2-13.9-13.9-13.9S73 88.1 73 95.8v16c-1.1-.1-2.2-.1-3.5-.1-9.7 0-14.7 2.9-19.2 5.4-4.2 2.4-7.8 4.4-15.5 4.4-5.2 0-8.6-1-11.5-2.3L30.1 90h1C37.7 90 43 84.7 43 78.1v-5.6h87.7v5.6c0 6.6 5.3 11.9 11.9 11.9h1l5.4 23c-2.7-.8-6-1.3-10.1-1.3z"/>
</svg>
